<svg version="1" xmlns="http://www.w3.org/2000/svg" width="1600" height="1600" viewBox="0 0 1200.000000 1200.000000"><path d="M0 600v600h1200V0H0v600zM408 64.4c68.1 9.5 120.1 33.9 160 75.2 43.6 45.2 66.8 105 69.9 179.9 1.5 34.4-.5 62.1-6.5 91.5-2.8 14-11.1 39.7-17.2 53.6-13.3 30.2-29.5 53.8-51.8 75.4-26.4 25.6-57.3 43.8-95.8 56.5-21.3 7.1-29.2 9-47.1 11.4-8.2 1.2-18.3 2.6-22.4 3.2-11.3 1.7-60 1.2-75.1-.7-40.4-5.1-68.4-13.1-99.5-28.4-26.2-12.9-44.5-26.1-65.1-47.2-37.7-38.6-60.2-87.3-68.9-149.8-2.2-15.8-3.1-62.7-1.6-81.3C97.5 178.1 171.6 92.6 290.8 68.5c10.9-2.2 28.5-4.7 42.2-5.9 11.1-1 64 .3 75 1.8zm535.4 129.5c79.9 13 134.5 57.7 158 129.2 12.7 38.8 15.9 88.1 8.5 131.9-12.6 74.7-55.2 126.9-122.9 150.9-24.8 8.8-49.2 12.9-80.5 13.6-21 .4-34.5-.5-53.4-3.5-55.9-9-99.1-35.1-129-77.8-7-10-19.1-35-23.5-48.2-11.9-36.7-15-74.6-10-124.5 2-20 10.4-48 20.9-70 15.1-31.4 41.3-59.3 72.4-77.1 23.8-13.5 54-22.8 86.1-26.3 15-1.7 58.6-.6 73.4 1.8zM648 594.8c0 .4-1.6 2.4-3.6 4.3l-3.5 3.4-1.9-2.5c-2.7-3.4-2.5-4.8.8-5.3 5-.7 8.2-.7 8.2.1zm-132.9 60.1c18.7 2.4 22.2 3.2 35.8 7.7 24.9 8.4 42.8 20 58.8 38.3 6.7 7.8 8 8.9 9.4 7.8 1-.7 7.5-5.1 14.6-9.8 37.1-24.8 78.6-42.4 108.1-45.8 20.9-2.5 69.4 1 91.7 6.5 32.1 7.9 60.6 24.9 77.7 46.4 18.9 23.6 29.3 53.4 35.4 101.5 1.5 11.2 1.8 28.1 2.1 119.7l.4 106.8h83.9v91H786v-91h37.1l-.3-101.8c-.3-93.1-.5-102.5-2.2-111.2-3.6-18.9-10.3-34-19.4-43.3-16.4-16.8-57.1-21.2-90-9.5-13.6 4.8-27.6 12.3-40.9 22l-5.3 3.9V1034h37.3l-.6 15.7c-.4 8.7-.7 29.2-.7 45.5v29.8H499v-91h39.1l-.4-104.3c-.3-92.7-.5-105-2-111.7-4.4-19.5-10.1-31.3-19.4-40-10.4-9.8-21.2-14-41.3-16-28.2-2.8-58 6-87 25.9l-8.5 5.8-.3 120.1-.2 120.2h39v91H169v-91h84V792.1l-3.2-.9c-1.8-.6-15.4-4.7-30.3-9.2-14.8-4.5-28.6-8.7-30.5-9.2-5.2-1.4-29.4-9-30.1-9.4-.6-.3 4-15.3 23.2-75.1 6.5-20.5 8.7-26.2 9.9-25.7 1.3.5 26.5 8.4 57 17.9 7.4 2.3 23.2 7.3 35 11s28.4 8.9 36.8 11.6l15.3 4.7 3.2-2.7c22.6-19.5 72.8-43.9 103.2-50.2 15.9-3.3 46.7-3.3 72.6 0z"/><path d="M338 156.1c-20.5 2.1-42.3 7.9-59.4 15.8-42.6 19.7-66.8 59.1-75.3 122.6-2.2 16.5-2.5 64.7-.5 80.5 6.8 54.3 24.7 91.9 54.2 113.9 33.9 25.3 90 35.6 144 26.5 22.7-3.8 47.5-13.4 63.5-24.4 30.4-21.1 49.9-60.7 56.7-115 2-16.1 1.7-67.2-.5-83-8.7-62.2-32.3-101.1-73.2-120.5-29.6-14-71.1-20.2-109.5-16.4zM878.7 281.6c-14.9 2.7-30.3 9.4-40.9 17.8-17.2 13.7-30.3 39.7-35.5 70.2-2.8 16.6-2.5 59.3.5 75.8 11 60.1 45.1 89.4 101.6 87.3 21.7-.8 35.9-4.6 51.3-13.9 34.1-20.6 51-71.6 45.3-136.6-3.4-38.3-18.4-70-40.2-85-6.2-4.2-19.4-10.7-25.8-12.6-14.7-4.5-40.7-5.8-56.3-3z"/></svg>